<svg width="45" height="46" fill="none" xmlns="http://www.w3.org/2000/svg"><g clip-path="url(#a)" fill="#FF8A50"><path d="M4.395 25.794a.89.89 0 0 0-.88.898.89.89 0 0 0 .88.899.89.89 0 0 0 .878-.899.89.89 0 0 0-.878-.898Z"/><path d="M40.396 28.91 32.11 31.82a3.67 3.67 0 0 0 .058-.637c0-1.981-1.577-3.594-3.516-3.594H22.96c-.15 0-.3-.04-.431-.115l-4.644-2.67a6.053 6.053 0 0 0-3.017-.808h-6.23C8.275 22.95 7.298 22.2 6.152 22.2H.88A.889.889 0 0 0 0 23.1V39.27c0 .496.393.899.879.899h5.273c1.12 0 2.08-.72 2.461-1.73.995.127 2.146.428 2.87.871l4.596 2.82a11.023 11.023 0 0 0 5.766 1.632c1.61 0 3.169-.345 4.635-1.026l16.405-7.383c1.816-.754 2.714-2.982 1.675-4.946-.764-1.445-2.553-2.088-4.164-1.498ZM7.031 37.476a.89.89 0 0 1-.879.895H1.758V23.997h4.394a.89.89 0 0 1 .88.898v12.582Zm35.186-3.786-.028.011-16.432 7.396a9.212 9.212 0 0 1-3.912.867 9.292 9.292 0 0 1-4.861-1.376l-4.597-2.82c-.984-.603-2.393-.97-3.598-1.118V25.794h6.08c.753 0 1.498.2 2.154.577l4.644 2.67c.393.227.84.347 1.293.347h5.692c.97 0 1.758.805 1.758 1.797 0 .987-.79 1.796-1.758 1.796h-8.935a.889.889 0 0 0-.878.899c0 .496.393.898.878.898h8.935c.576 0 1.144-.146 1.648-.42l10.686-3.756c.788-.29 1.678-.001 2.028.66.523.99.09 2.066-.797 2.429ZM25.598 24.038a.867.867 0 0 0 1.151 0c7.171-6.353 11.607-9.568 11.607-14.564 0-3.952-2.737-7.228-6.583-7.228-2.525 0-4.46 1.488-5.705 3.721-1.242-2.228-3.174-3.72-5.704-3.72-2.944 0-5.405 1.95-6.27 4.967a.902.902 0 0 0 .596 1.115.876.876 0 0 0 1.09-.61c.64-2.233 2.44-3.676 4.584-3.676 2.508 0 4.266 2.276 4.857 4.395.106.39.453.659.847.659.395 0 .742-.27.847-.659.012-.044 1.233-4.395 4.858-4.395 2.751 0 4.825 2.335 4.825 5.431 0 3.997-3.822 6.878-10.425 12.698-4.023-3.532-7.22-6.018-9.036-8.45a.866.866 0 0 0-1.232-.17.912.912 0 0 0-.165 1.26c2.047 2.742 5.504 5.368 9.858 9.226Z"/><path d="M14.854 10.161a.89.89 0 0 0-.88.899.89.89 0 0 0 .88.898.89.89 0 0 0 .878-.898.89.89 0 0 0-.878-.899Z"/></g><defs><clipPath id="a"><path fill="#fff" d="M0 0h45v46H0z"/></clipPath></defs></svg>