<svg width="44" height="46" fill="none" xmlns="http://www.w3.org/2000/svg"><g clip-path="url(#a)" fill="#FF8A50"><path d="M43.996 23.223a.908.908 0 0 0-.456-.878l-8.05-4.411 7.904-2.554a.89.89 0 0 0 .603-.777.909.909 0 0 0-.457-.877L27.535 4.954a.825.825 0 0 0-.653-.062L.606 13.382a.89.89 0 0 0-.602.776.908.908 0 0 0 .456.878l5.527 3.029c.872.478 1.762.907 2.667 1.29L.602 22.002a.89.89 0 0 0-.599.777c-.03.362.15.707.457.876l8.05 4.411L.606 30.62a.89.89 0 0 0-.602.776.908.908 0 0 0 .456.878l16.005 8.772a.83.83 0 0 0 .653.062l9.8-3.166c.453-.147.708-.65.567-1.124-.14-.474-.62-.74-1.074-.593l-9.462 3.057-13.846-7.588 7.566-2.445 5.796 3.177a.827.827 0 0 0 .653.063l16.043-5.183 7.736 4.239-7.91 2.555c-.453.147-.707.65-.567 1.124a.864.864 0 0 0 .821.633c.084 0 .17-.013.254-.04l9.9-3.199a.89.89 0 0 0 .601-.776.908.908 0 0 0-.456-.877l-8.05-4.412 7.904-2.554a.89.89 0 0 0 .602-.776ZM3.103 14.455 27.05 6.718l13.847 7.588-12.983 4.195c-.629.203-1.262.382-1.897.537l-1.803-.551c-2.216-.678-4.046-2.217-5.156-4.334a.857.857 0 0 0-.683-.464.84.84 0 0 0-.747.342c-1.584 2.118-3.967 3.333-6.539 3.333H8.56a27.95 27.95 0 0 1-1.775-.891l-3.682-2.018Zm9.941 4.508a9.797 9.797 0 0 0 5.143-2.882c1.06 1.57 2.49 2.8 4.16 3.592a26.341 26.341 0 0 1-9.303-.71Zm3.905 11.7L3.09 23.067l8.283-2.723c.41.126.825.242 1.24.35a.927.927 0 0 0 .1 1.144c.16.167.381.264.607.264a.846.846 0 0 0 .608-.264.927.927 0 0 0 .238-.79 28.444 28.444 0 0 0 5.556.548c1.775 0 3.54-.169 5.284-.503a.927.927 0 0 0 .244.745.85.85 0 0 0 .608.264.847.847 0 0 0 .607-.264.924.924 0 0 0 .129-1.097 29.003 29.003 0 0 0 1.828-.523l1.795-.58c.04.082.093.158.156.224.16.167.381.263.607.263a.848.848 0 0 0 .608-.263.927.927 0 0 0 .244-.746l1.33-.43 7.735 4.24-23.947 7.737Z"/><path d="M29.948 35.124a.847.847 0 0 0-.608.264.927.927 0 0 0 0 1.27c.16.167.381.263.608.263a.848.848 0 0 0 .607-.263.927.927 0 0 0 0-1.27.848.848 0 0 0-.607-.264ZM17.345 26.684a.847.847 0 0 0-.607.263.925.925 0 0 0 0 1.27c.16.167.38.264.607.264a.847.847 0 0 0 .607-.264.922.922 0 0 0 .252-.635.922.922 0 0 0-.252-.635.846.846 0 0 0-.607-.263ZM12.332 24.033a.848.848 0 0 0-.608.263.927.927 0 0 0 0 1.27c.16.168.382.264.608.264a.848.848 0 0 0 .608-.263.927.927 0 0 0 0-1.27.848.848 0 0 0-.608-.264ZM23.805 24.033a.848.848 0 0 0-.608.263.927.927 0 0 0 0 1.27c.16.168.382.264.608.264a.848.848 0 0 0 .607-.263.927.927 0 0 0 0-1.27.848.848 0 0 0-.607-.264ZM30.25 21.293a.847.847 0 0 0-.608.263.927.927 0 0 0 0 1.27c.16.168.382.264.608.264a.847.847 0 0 0 .608-.263.927.927 0 0 0 0-1.27.847.847 0 0 0-.608-.264ZM19.293 23.221a.848.848 0 0 0-.608.263.926.926 0 0 0 0 1.27c.16.168.382.264.608.264a.848.848 0 0 0 .608-.263.928.928 0 0 0 0-1.27.848.848 0 0 0-.608-.264Z"/></g><defs><clipPath id="a"><path fill="#fff" d="M0 0h44v46H0z"/></clipPath></defs></svg>