<svg width="45" height="45" fill="none" xmlns="http://www.w3.org/2000/svg"><g clip-path="url(#a)" fill="#FF8A50"><path d="m27.59 18.32-6.762 6.386-3.244-3.338a.935.935 0 1 0-1.342 1.303l3.892 3.995a.952.952 0 0 0 1.323.028l7.436-7.014a.935.935 0 0 0 .038-1.323.957.957 0 0 0-1.341-.037Z"/><path d="M22.573 8.492c-7.728 0-14.011 6.283-14.011 14.01 0 7.728 6.283 14.011 14.01 14.011 7.728 0 14.011-6.283 14.011-14.01 0-7.728-6.283-14.011-14.01-14.011Zm0 26.145c-6.696 0-12.135-5.448-12.135-12.135 0-6.686 5.439-12.135 12.135-12.135 6.702 0 12.135 5.433 12.135 12.135s-5.433 12.135-12.135 12.135Z"/><path d="m41.854 17.345.31-5.562a.936.936 0 0 0-.517-.89l-4.951-2.504-2.504-4.952a.952.952 0 0 0-.891-.516l-5.57.3L23.087.156a.937.937 0 0 0-1.031 0l-4.642 3.067-5.561-.31a.934.934 0 0 0-.891.516L8.459 8.379l-4.952 2.504a.95.95 0 0 0-.515.891l.309 5.561-3.067 4.642a.937.937 0 0 0 0 1.032l3.058 4.651-.31 5.561a.935.935 0 0 0 .516.891l4.951 2.504 2.504 4.952a.95.95 0 0 0 .891.516l5.561-.31 4.642 3.066a.913.913 0 0 0 1.032 0l4.642-3.066 5.561.31a.936.936 0 0 0 .891-.516l2.504-4.952 4.952-2.504a.951.951 0 0 0 .516-.89l-.31-5.562 3.066-4.642a.937.937 0 0 0 0-1.031l-3.047-4.642Zm-1.745 9.546a.881.881 0 0 0-.15.573l.29 5.26-4.679 2.364a.926.926 0 0 0-.412.412l-2.364 4.68-5.26-.29c-.202-.008-.4.044-.573.15l-4.389 2.897-4.388-2.898a.93.93 0 0 0-.516-.16h-.047l-5.261.292-2.363-4.68a.924.924 0 0 0-.413-.413l-4.689-2.354.29-5.26c.008-.202-.044-.4-.15-.573l-2.897-4.389 2.898-4.389a.878.878 0 0 0 .15-.571l-.291-5.262 4.68-2.363a.925.925 0 0 0 .412-.412l2.364-4.68 5.26.29c.202.008.4-.044.573-.15l4.388-2.897 4.39 2.898a.88.88 0 0 0 .572.15l5.26-.291 2.364 4.68c.09.178.234.323.412.412l4.68 2.363-.29 5.262c-.008.2.044.4.15.571l2.897 4.39-2.898 4.388Z"/></g><defs><clipPath id="a"><path fill="#fff" d="M0 0h45v45H0z"/></clipPath></defs></svg>