<svg width="45" height="46" viewBox="0 0 45 46" fill="none" xmlns="http://www.w3.org/2000/svg">
<g clip-path="url(#clip0_452_3220)">
<path d="M4.39453 25.7939C3.90942 25.7939 3.51562 26.1965 3.51562 26.6924C3.51562 27.1883 3.90942 27.5908 4.39453 27.5908C4.87965 27.5908 5.27344 27.1883 5.27344 26.6924C5.27344 26.1965 4.87965 25.7939 4.39453 25.7939Z" fill="#FF8A50"/>
<path d="M40.3961 28.9094L32.1104 31.8212C32.1471 31.6128 32.1677 31.4001 32.1677 31.1842C32.1677 29.2028 30.5908 27.5905 28.6521 27.5905H22.9604C22.8094 27.5905 22.6604 27.5508 22.5289 27.475L17.8854 24.8053C16.9674 24.2764 15.924 23.9967 14.8683 23.9967H8.63767C8.27512 22.9512 7.29803 22.2002 6.15236 22.2002H0.878908C0.393449 22.2002 0 22.6024 0 23.0986V39.2702C0 39.7664 0.393449 40.1686 0.878908 40.1686H6.15236C7.27193 40.1686 8.23187 39.4495 8.61296 38.4395C9.60791 38.5658 10.7591 38.8666 11.4825 39.3102L16.0789 42.1294C17.8202 43.1977 19.8139 43.7624 21.845 43.7624C23.4545 43.7624 25.0139 43.4171 26.4802 42.7362L42.8845 35.3525C44.7014 34.599 45.5985 32.3708 44.5599 30.4069C43.7961 28.9617 42.007 28.3187 40.3961 28.9094ZM7.03126 37.4775C7.0292 37.971 6.63541 38.3718 6.15236 38.3718H1.75782V23.9971H6.15236C6.63679 23.9971 7.03126 24.4 7.03126 24.8955V37.4775ZM42.2168 33.6907C42.2075 33.6943 42.1982 33.6985 42.189 33.7023C42.189 33.7023 25.7602 41.0969 25.7572 41.0983C24.5195 41.6739 23.2032 41.9655 21.845 41.9655C20.1325 41.9655 18.4516 41.4896 16.9835 40.5887L12.3868 37.7695C11.4028 37.1662 9.9938 36.7984 8.78908 36.651V25.794H14.8683C15.6222 25.794 16.3673 25.9933 17.0233 26.3713L21.6668 29.041C22.0602 29.2677 22.5079 29.3877 22.9604 29.3877H28.6521C29.6213 29.3877 30.4099 30.1935 30.4099 31.1846C30.4099 32.1718 29.6209 32.9815 28.6521 32.9815H19.7174C19.2319 32.9815 18.8385 33.3837 18.8385 33.8799C18.8385 34.3758 19.2319 34.778 19.7174 34.778H28.6521C29.2285 34.778 29.796 34.6316 30.2997 34.3572C30.2997 34.3572 40.9822 30.6034 40.9863 30.602C41.7739 30.3114 42.6645 30.6006 43.0136 31.2611C43.5372 32.2511 43.1043 33.3275 42.2168 33.6907Z" fill="#FF8A50"/>
<path d="M25.5979 24.0382C25.7634 24.1845 25.9684 24.2575 26.1737 24.2575C26.379 24.2575 26.5843 24.1845 26.7494 24.0382C33.9204 17.6852 38.3562 14.4701 38.3562 9.47397C38.3562 5.52154 35.6189 2.24609 31.7733 2.24609C29.2478 2.24609 27.3139 3.73413 26.0683 5.96725C24.8255 3.73905 22.8936 2.24609 20.3643 2.24609C17.4203 2.24609 14.959 4.19634 14.0939 7.21418C13.9572 7.69042 14.2243 8.18948 14.6902 8.32916C15.1561 8.46884 15.6443 8.1958 15.7806 7.71955C16.4209 5.48609 18.2199 4.04297 20.3643 4.04297C22.8716 4.04297 24.6304 6.3189 25.2213 8.43795C25.3267 8.82716 25.6735 9.09669 26.0683 9.09669C26.4635 9.09669 26.8099 8.82716 26.9153 8.43795C26.9273 8.39408 28.1481 4.04297 31.7733 4.04297C34.524 4.04297 36.5984 6.37751 36.5984 9.47397C36.5984 13.4706 32.7765 16.3519 26.173 22.1721C22.1496 18.6402 18.9536 16.154 17.1371 13.7219C16.8425 13.3274 16.2911 13.2516 15.9052 13.5527C15.5193 13.8539 15.4455 14.4175 15.7397 14.8123C17.7873 17.5536 21.2439 20.1801 25.5979 24.0382Z" fill="#FF8A50"/>
<path d="M14.8535 10.1611C14.3684 10.1611 13.9746 10.5637 13.9746 11.0596C13.9746 11.5555 14.3684 11.958 14.8535 11.958C15.3386 11.958 15.7324 11.5555 15.7324 11.0596C15.7324 10.5637 15.3386 10.1611 14.8535 10.1611Z" fill="#FF8A50"/>
</g>
<defs>
<clipPath id="clip0_452_3220">
<rect width="45" height="46" fill="white"/>
</clipPath>
</defs>
</svg>