<svg width="44" height="46" viewBox="0 0 44 46" fill="none" xmlns="http://www.w3.org/2000/svg">
<g clip-path="url(#clip0_452_3212)">
<path d="M43.9963 23.2228C44.0282 22.8607 43.8479 22.5139 43.5397 22.3451L35.4905 17.9337L43.3944 15.3798C43.7271 15.2724 43.9647 14.966 43.9966 14.6035C44.0282 14.2413 43.8479 13.8946 43.5397 13.7257L27.5346 4.95442C27.3335 4.84422 27.0992 4.82141 26.882 4.8916L0.605654 13.3815C0.273318 13.4892 0.0353122 13.7956 0.00375713 14.1578C-0.0281337 14.5203 0.152133 14.8667 0.460299 15.0359L5.98681 18.0646C6.85927 18.5426 7.74886 18.9725 8.65388 19.3547L0.601626 22.0022C0.270297 22.111 0.0343052 22.4178 0.00342143 22.7792C-0.0274622 23.1411 0.152805 23.4864 0.460299 23.6549L8.50954 28.0663L0.605654 30.6202C0.273318 30.7276 0.0353122 31.034 0.00375713 31.3965C-0.0281337 31.7587 0.152133 32.1054 0.460299 32.2742L16.4655 41.0456C16.5897 41.1137 16.727 41.1484 16.8646 41.1484C16.9499 41.1484 17.0355 41.1351 17.1184 41.1084L26.9183 37.9421C27.3714 37.7954 27.6256 37.2925 27.4852 36.8184C27.3453 36.3442 26.8642 36.0786 26.4107 36.2253L16.9495 39.282L3.10321 31.6938L10.6687 29.2494L16.4655 32.4262C16.5897 32.4946 16.727 32.529 16.8646 32.529C16.9499 32.529 17.0355 32.5157 17.1184 32.489L33.1615 27.3055L40.8968 31.5446L32.9876 34.1002C32.5341 34.2466 32.2799 34.7499 32.4203 35.224C32.5341 35.6097 32.8738 35.8571 33.241 35.8571C33.3249 35.8571 33.4105 35.8441 33.4951 35.8171L43.3944 32.6185C43.7267 32.5111 43.9647 32.2044 43.9963 31.8422C44.0282 31.48 43.8479 31.1333 43.5397 30.9645L35.4905 26.553L43.3944 23.9992C43.7267 23.8918 43.9647 23.5854 43.9963 23.2228ZM3.10321 14.4554L27.0505 6.71795L40.8968 14.3062L27.9143 18.5008C27.2852 18.704 26.6524 18.8826 26.0169 19.0385L24.2139 18.4868C21.9983 17.8087 20.1675 16.2698 19.0583 14.1532C18.9197 13.8879 18.6626 13.7138 18.3745 13.6893C18.0845 13.6643 17.8059 13.7931 17.6276 14.0314C16.0442 16.1494 13.6611 17.3641 11.0893 17.3641H8.56023C7.96169 17.0896 7.36919 16.7931 6.78475 16.473L3.10321 14.4554ZM13.0444 18.9626C14.9934 18.5622 16.777 17.5669 18.1869 16.0813C19.2477 17.6511 20.6764 18.8819 22.3465 19.673C19.2222 19.9913 16.0841 19.7512 13.0444 18.9626ZM16.9495 30.6627L3.09045 23.0674L11.373 20.3443C11.7839 20.4703 12.1975 20.5865 12.6134 20.6939C12.5157 20.8427 12.461 21.0213 12.461 21.2031C12.461 21.4393 12.553 21.6713 12.7127 21.8383C12.8725 22.0054 13.0944 22.1016 13.3203 22.1016C13.5473 22.1016 13.7682 22.0054 13.928 21.8383C14.0877 21.6713 14.1797 21.4393 14.1797 21.2031C14.1797 21.1512 14.1743 21.0996 14.166 21.0487C15.0999 21.2344 16.0448 21.3733 17.0002 21.4649C17.9096 21.5523 18.8173 21.5958 19.7223 21.5958C21.4975 21.5958 23.2622 21.427 25.0058 21.0929C25.0014 21.1294 24.9984 21.1663 24.9984 21.2031C24.9984 21.4393 25.0904 21.6713 25.2502 21.8383C25.411 22.0054 25.6319 22.1016 25.8578 22.1016C26.0837 22.1016 26.3056 22.0054 26.4654 21.8383C26.6259 21.6713 26.7178 21.4393 26.7178 21.2031C26.7178 21.0403 26.6735 20.8802 26.5936 20.7413C27.2063 20.5872 27.8159 20.4131 28.4218 20.2177L30.2174 19.6375C30.2577 19.7197 30.3098 19.7958 30.3729 19.8618C30.5327 20.0288 30.7545 20.125 30.9805 20.125C31.2064 20.125 31.4283 20.0288 31.5881 19.8618C31.7479 19.6947 31.8398 19.4628 31.8398 19.2266C31.8398 19.1894 31.8368 19.1525 31.8321 19.1157L33.1615 18.6861L40.8968 22.9252L16.9495 30.6627Z" fill="#FF8A50"/>
<path d="M29.9479 35.1243C29.721 35.1243 29.4995 35.2204 29.3397 35.3875C29.1799 35.5545 29.0879 35.7865 29.0879 36.0227C29.0879 36.2589 29.1799 36.4909 29.3397 36.6579C29.4995 36.825 29.721 36.9211 29.9479 36.9211C30.1742 36.9211 30.3947 36.825 30.5555 36.6579C30.7153 36.4909 30.8073 36.2589 30.8073 36.0227C30.8073 35.7865 30.7157 35.5545 30.5555 35.3875C30.3951 35.2204 30.1742 35.1243 29.9479 35.1243Z" fill="#FF8A50"/>
<path d="M17.3447 26.6836C17.1188 26.6836 16.8972 26.7798 16.7375 26.9468C16.5773 27.1139 16.4854 27.3458 16.4854 27.582C16.4854 27.8182 16.5773 28.0502 16.7375 28.2172C16.8972 28.3843 17.1188 28.4805 17.3447 28.4805C17.571 28.4805 17.7925 28.3843 17.9523 28.2172C18.1131 28.0502 18.2041 27.8182 18.2041 27.582C18.2041 27.3458 18.1131 27.1139 17.9523 26.9468C17.7925 26.7798 17.5717 26.6836 17.3447 26.6836Z" fill="#FF8A50"/>
<path d="M12.332 24.0332C12.1061 24.0332 11.8842 24.1294 11.7244 24.2964C11.5646 24.4635 11.4727 24.6954 11.4727 24.9316C11.4727 25.1678 11.5646 25.3998 11.7244 25.5669C11.8842 25.7339 12.1061 25.8301 12.332 25.8301C12.558 25.8301 12.7798 25.7339 12.9396 25.5669C13.0994 25.3998 13.1914 25.1678 13.1914 24.9316C13.1914 24.6954 13.0994 24.4635 12.9396 24.2964C12.7798 24.1294 12.558 24.0332 12.332 24.0332Z" fill="#FF8A50"/>
<path d="M23.8047 24.0332C23.5788 24.0332 23.3569 24.1294 23.1971 24.2964C23.0373 24.4635 22.9453 24.6954 22.9453 24.9316C22.9453 25.1678 23.0373 25.3998 23.1971 25.5669C23.3569 25.7339 23.5788 25.8301 23.8047 25.8301C24.0306 25.8301 24.2525 25.7339 24.4123 25.5669C24.5721 25.3998 24.6641 25.1678 24.6641 24.9316C24.6641 24.6954 24.5721 24.4635 24.4123 24.2964C24.2525 24.1294 24.0306 24.0332 23.8047 24.0332Z" fill="#FF8A50"/>
<path d="M30.25 21.293C30.0241 21.293 29.8022 21.3891 29.6424 21.5562C29.4826 21.7232 29.3906 21.9552 29.3906 22.1914C29.3906 22.4276 29.4826 22.6596 29.6424 22.8266C29.8022 22.9937 30.0241 23.0898 30.25 23.0898C30.4759 23.0898 30.6978 22.9937 30.8576 22.8266C31.0174 22.6596 31.1094 22.4276 31.1094 22.1914C31.1094 21.9552 31.0174 21.7232 30.8576 21.5562C30.6978 21.3891 30.4759 21.293 30.25 21.293Z" fill="#FF8A50"/>
<path d="M19.293 23.2212C19.067 23.2212 18.8452 23.3174 18.6854 23.4844C18.5256 23.6515 18.4336 23.8831 18.4336 24.1196C18.4336 24.3558 18.5256 24.5874 18.6854 24.7549C18.8452 24.9219 19.067 25.0181 19.293 25.0181C19.5189 25.0181 19.7408 24.9219 19.9006 24.7549C20.0604 24.5874 20.1523 24.3558 20.1523 24.1196C20.1523 23.8831 20.0604 23.6515 19.9006 23.4844C19.7408 23.3174 19.5189 23.2212 19.293 23.2212Z" fill="#FF8A50"/>
</g>
<defs>
<clipPath id="clip0_452_3212">
<rect width="44" height="46" fill="white"/>
</clipPath>
</defs>
</svg>