<svg width="45" height="45" viewBox="0 0 45 45" fill="none" xmlns="http://www.w3.org/2000/svg">
<g clip-path="url(#clip0_452_3208)">
<path d="M27.5897 18.32L20.8284 24.7061L17.5835 21.3678C17.2238 20.9975 16.6314 20.989 16.2614 21.3488C15.8911 21.7089 15.8827 22.3008 16.2424 22.6712L20.1342 26.6663C20.4958 27.0301 21.0801 27.0426 21.4567 26.6942L28.8934 19.6798C29.074 19.5094 29.1795 19.2743 29.1865 19.0263C29.1935 18.7783 29.1015 18.5376 28.9308 18.3574C28.5689 17.9811 27.9721 17.9647 27.5897 18.32Z" fill="#FF8A50"/>
<path d="M22.5725 8.4917C14.8452 8.4917 8.56201 14.7749 8.56201 22.5022C8.56201 30.2298 14.8452 36.513 22.5725 36.513C30.3001 36.513 36.5834 30.2298 36.5834 22.5022C36.5834 14.7749 30.3001 8.4917 22.5725 8.4917ZM22.5725 34.6374C15.8768 34.6374 10.4376 29.1887 10.4376 22.5022C10.4376 15.8156 15.8768 10.3673 22.5725 10.3673C29.2748 10.3673 34.7078 15.8003 34.7078 22.5022C34.7078 29.2041 29.2748 34.6374 22.5725 34.6374Z" fill="#FF8A50"/>
<path d="M41.8536 17.3445L42.1632 11.7833C42.1848 11.41 41.9818 11.0595 41.6474 10.8924L36.6957 8.38858L34.1919 3.43696C34.0216 3.10543 33.6732 2.90359 33.301 2.92117L27.7303 3.22156L23.0882 0.154681C22.7754 -0.0515603 22.3699 -0.0515603 22.0566 0.154681L17.4146 3.22156L11.8537 2.91201C11.4801 2.89003 11.1299 3.09298 10.9628 3.4278L8.45864 8.37942L3.50739 10.8833C3.1755 11.0532 2.97402 11.4016 2.9916 11.7742L3.30078 17.3353L0.234271 21.9774C0.0280295 22.2903 0.0280295 22.6958 0.234271 23.009L3.29162 27.6602L2.98208 33.2214C2.96046 33.5947 3.16304 33.9453 3.49786 34.1123L8.44949 36.6162L10.9533 41.5678C11.1233 41.8997 11.4717 42.1011 11.8442 42.0836L17.4054 41.774L22.0475 44.8405C22.3585 45.0534 22.7681 45.0534 23.0791 44.8405L27.7211 41.774L33.2823 42.0836C33.6556 42.1052 34.0058 41.9022 34.1732 41.5678L36.6771 36.6162L41.6287 34.1123C41.9602 33.942 42.1621 33.594 42.1445 33.2214L41.8349 27.6602L44.9014 23.0182C45.1077 22.7053 45.1077 22.2994 44.9014 21.9866L41.8536 17.3445ZM40.1092 26.8913C39.9949 27.0591 39.9418 27.2609 39.9593 27.4635L40.2498 32.7243L35.5704 35.0875C35.392 35.1769 35.2473 35.3219 35.1579 35.5003L32.7944 40.1798L27.5336 39.8893C27.3321 39.8819 27.1332 39.934 26.9614 40.0391L22.5724 42.9371L18.1839 40.0391C18.0315 39.9362 17.852 39.8805 17.6681 39.8797H17.6212L12.36 40.1706L9.99685 35.4908C9.90746 35.3124 9.76276 35.1677 9.584 35.0783L4.89503 32.7243L5.18589 27.4635C5.19322 27.262 5.14083 27.0631 5.0357 26.8913L2.13806 22.5024L5.0357 18.1134C5.15036 17.946 5.20348 17.7438 5.18589 17.5416L4.89503 12.2804L9.57484 9.91725C9.75324 9.82787 9.89794 9.68317 9.98732 9.50477L12.3505 4.82496L17.6117 5.11583C17.8128 5.12279 18.0117 5.07077 18.1839 4.96563L22.5724 2.068L26.9614 4.96563C27.1292 5.08029 27.3314 5.13341 27.5336 5.11583L32.7944 4.82496L35.1579 9.50477C35.2473 9.68317 35.392 9.82787 35.5704 9.91725L40.2498 12.2804L39.9593 17.5416C39.952 17.7427 40.0044 17.9416 40.1092 18.1134L43.0072 22.5024L40.1092 26.8913Z" fill="#FF8A50"/>
</g>
<defs>
<clipPath id="clip0_452_3208">
<rect width="45" height="45" fill="white"/>
</clipPath>
</defs>
</svg>